{
	"asset":{
		"generator":"Khronos glTF Blender I/O v3.6.28",
		"version":"2.0"
	},
	"scene":0,
	"scenes":[
		{
			"name":"Scene",
			"nodes":[
				0
			]
		}
	],
	"nodes":[
		{
			"mesh":0,
			"name":"Cube",
			"scale":[
				100,
				1,
				100
			]
		}
	],
	"meshes":[
		{
			"name":"Cube.001",
			"primitives":[
				{
					"attributes":{
						"POSITION":0,
						"NORMAL":1,
						"TEXCOORD_0":2
					},
					"indices":3
				}
			]
		}
	],
	"accessors":[
		{
			"bufferView":0,
			"componentType":5126,
			"count":2061,
			"max":[
				1,
				53.79264450073242,
				1
			],
			"min":[
				-1,
				-1,
				-1
			],
			"type":"VEC3"
		},
		{
			"bufferView":1,
			"componentType":5126,
			"count":2061,
			"type":"VEC3"
		},
		{
			"bufferView":2,
			"componentType":5126,
			"count":2061,
			"type":"VEC2"
		},
		{
			"bufferView":3,
			"componentType":5123,
			"count":8514,
			"type":"SCALAR"
		}
	],
	"bufferViews":[
		{
			"buffer":0,
			"byteLength":24732,
			"byteOffset":0,
			"target":34962
		},
		{
			"buffer":0,
			"byteLength":24732,
			"byteOffset":24732,
			"target":34962
		},
		{
			"buffer":0,
			"byteLength":16488,
			"byteOffset":49464,
			"target":34962
		},
		{
			"buffer":0,
			"byteLength":17028,
			"byteOffset":65952,
			"target":34963
		}
	],
	"buffers":[
		{
			"byteLength":82980,
			"uri":"data:application/octet-stream;base64,"
		}
	]
}
